<svg xmlns="http://www.w3.org/2000/svg" width="287" height="59"><path fill="#ED7E8D" d="M36.415 50.431a2.067 2.067 0 011.048-2.73 2.07 2.07 0 11-1.048 2.73M14.312 13.124c.85.766.92 2.075.154 2.925a2.072 2.072 0 01-2.923.15 2.065 2.065 0 01-.152-2.92 2.067 2.067 0 012.921-.155m-3.062 3.478c.99.573 1.328 1.84.757 2.829a2.072 2.072 0 01-2.825.758 2.073 2.073 0 01-.759-2.828 2.072 2.072 0 012.827-.759m-2.27 4.04a2.068 2.068 0 011.327 2.606 2.068 2.068 0 11-3.936-1.277 2.07 2.07 0 012.609-1.329m-1.382 4.421a2.072 2.072 0 011.842 2.273 2.072 2.072 0 01-2.275 1.843 2.065 2.065 0 01-1.84-2.273 2.069 2.069 0 012.273-1.843m-.442 4.627a2.069 2.069 0 11-1.842 2.272 2.065 2.065 0 011.842-2.272m.546 4.591a2.065 2.065 0 012.605 1.33 2.067 2.067 0 01-1.327 2.605 2.068 2.068 0 11-1.278-3.935m1.48 4.388a2.07 2.07 0 112.068 3.587 2.07 2.07 0 01-2.068-3.587m2.361 3.99a2.068 2.068 0 112.769 3.075 2.07 2.07 0 01-2.769-3.075m3.14 3.406a2.07 2.07 0 013.349 2.433 2.07 2.07 0 01-3.349-2.433m3.778 2.683a2.067 2.067 0 113.78 1.682 2.062 2.062 0 01-2.729 1.05 2.07 2.07 0 01-1.051-2.732m4.255 1.839a2.071 2.071 0 012.453-1.597 2.072 2.072 0 01-.858 4.052 2.07 2.07 0 01-1.595-2.455m4.544.909c0-1.141.925-2.066 2.069-2.066a2.067 2.067 0 110 4.136 2.068 2.068 0 01-2.069-2.07m4.634-.049a2.072 2.072 0 011.594-2.457 2.07 2.07 0 012.454 1.597 2.065 2.065 0 01-1.593 2.455 2.073 2.073 0 01-2.455-1.595m8.732-2.949a2.071 2.071 0 01.461-2.891 2.07 2.07 0 11-.461 2.891m3.72-2.764a2.07 2.07 0 112.771-3.076 2.07 2.07 0 01-2.771 3.076m3.06-3.479a2.067 2.067 0 01-.756-2.827 2.074 2.074 0 012.827-.759 2.072 2.072 0 01.757 2.828 2.073 2.073 0 01-2.828.758m2.274-4.038a2.069 2.069 0 111.276-3.936 2.069 2.069 0 01-1.276 3.936m1.382-4.423a2.077 2.077 0 01-1.845-2.275 2.07 2.07 0 111.845 2.275m.436-4.614a2.075 2.075 0 01-2.281-1.843 2.075 2.075 0 011.847-2.273 2.075 2.075 0 012.273 1.843 2.067 2.067 0 01-1.839 2.273m-.539-4.602a2.069 2.069 0 11-1.279-3.937 2.076 2.076 0 012.61 1.33 2.076 2.076 0 01-1.331 2.607m-1.481-4.39a2.072 2.072 0 01-2.071-3.587 2.071 2.071 0 012.071 3.587m-2.365-3.989a2.068 2.068 0 11-2.768-3.075 2.068 2.068 0 012.923.155c.766.85.697 2.154-.155 2.92m-3.118-3.247a2.07 2.07 0 11-3.352-2.43 2.07 2.07 0 013.352 2.43m-3.799-2.841a2.068 2.068 0 01-2.731 1.049 2.074 2.074 0 01-1.051-2.735 2.069 2.069 0 012.732-1.044 2.062 2.062 0 011.05 2.73m-4.258-1.814a2.073 2.073 0 01-2.455 1.597 2.07 2.07 0 01-1.593-2.455 2.063 2.063 0 012.451-1.592 2.067 2.067 0 011.597 2.45m-4.54-.934a2.07 2.07 0 11-4.138-.002 2.07 2.07 0 014.138.002m-4.633.049a2.07 2.07 0 11-4.049.859 2.066 2.066 0 011.595-2.45 2.067 2.067 0 012.454 1.591m-4.523 1.015a2.072 2.072 0 01-1.049 2.733 2.068 2.068 0 11-1.68-3.779 2.062 2.062 0 012.729 1.046m-4.211 1.936c.671.92.467 2.213-.459 2.886a2.067 2.067 0 01-2.89-.459 2.069 2.069 0 113.349-2.427"/><path fill="#F7B147" d="M9.891 10.888a1.243 1.243 0 01-1.243 1.235 1.24 1.24 0 01.007-2.478 1.238 1.238 0 011.236 1.243m-3.432 4.447a1.238 1.238 0 01-2.421.507 1.233 1.233 0 01.958-1.464 1.231 1.231 0 011.463.957m-2.431 5.063a1.236 1.236 0 01-.633 1.629 1.233 1.233 0 01-1.632-.635 1.234 1.234 0 01.634-1.628 1.239 1.239 0 011.631.634m-1.324 5.458a1.237 1.237 0 11-2.007 1.443 1.237 1.237 0 112.007-1.443m-.17 5.623A1.238 1.238 0 11.87 33.312a1.238 1.238 0 011.664-1.833M3.55 36.99a1.239 1.239 0 11-1.246 2.14 1.236 1.236 0 01-.444-1.693 1.24 1.24 0 011.69-.447m2.138 5.197a1.237 1.237 0 11-.772 2.35 1.237 1.237 0 01.772-2.35m3.168 4.636a1.238 1.238 0 11-.265 2.461 1.238 1.238 0 01.265-2.461m4.063 3.875a1.237 1.237 0 011.357 1.108 1.235 1.235 0 01-1.105 1.357 1.238 1.238 0 01-.252-2.465m4.782 2.947a1.24 1.24 0 011.557.801 1.236 1.236 0 01-.8 1.556 1.234 1.234 0 01-1.556-.797 1.24 1.24 0 01.799-1.56m5.289 1.888a1.24 1.24 0 011.232 2.149 1.232 1.232 0 01-1.691-.461 1.238 1.238 0 01.459-1.688m5.569.747a1.238 1.238 0 011.651 1.847 1.238 1.238 0 01-1.75-.101 1.23 1.23 0 01.099-1.746m5.599-.425a1.24 1.24 0 011.729-.27c.553.408.671 1.178.27 1.733a1.238 1.238 0 11-1.999-1.463m5.387-1.583a1.237 1.237 0 012.258 1.015c-.279.624-1.012.908-1.637.624a1.24 1.24 0 01-.621-1.639m4.944-2.667a1.238 1.238 0 112.42.526 1.238 1.238 0 01-2.42-.526m4.277-3.634a1.238 1.238 0 112.477.01 1.238 1.238 0 01-2.477-.01m3.431-4.447a1.239 1.239 0 012.423-.507 1.239 1.239 0 01-.955 1.466 1.246 1.246 0 01-1.468-.959m2.431-5.062a1.24 1.24 0 012.266-1 1.239 1.239 0 01-2.266 1m1.326-5.457a1.242 1.242 0 01.28-1.729 1.24 1.24 0 011.728.279 1.24 1.24 0 01-.279 1.729c-.553.4-1.33.272-1.729-.279m.16-5.614a1.235 1.235 0 01-.083-1.747 1.235 1.235 0 011.748-.086c.506.459.544 1.239.085 1.749a1.244 1.244 0 01-1.75.084m-1.008-5.526a1.232 1.232 0 01-.446-1.689 1.235 1.235 0 011.691-.451 1.238 1.238 0 11-1.245 2.14m-2.137-5.193a1.238 1.238 0 11.776-2.349 1.238 1.238 0 01-.776 2.349m-3.171-4.637a1.238 1.238 0 11.277-2.46 1.238 1.238 0 01-.277 2.46M45.753 8.32a1.234 1.234 0 01-1.352-1.107 1.234 1.234 0 011.103-1.358A1.238 1.238 0 0146.86 6.96a1.237 1.237 0 01-1.107 1.36m-4.795-3.106a1.237 1.237 0 11-.757-2.356 1.237 1.237 0 01.757 2.356m-5.296-1.863a1.238 1.238 0 11-1.23-2.149 1.238 1.238 0 011.23 2.149m-5.56-.773A1.239 1.239 0 1128.452.73a1.239 1.239 0 011.65 1.848m-5.601.426a1.237 1.237 0 01-1.73.266 1.237 1.237 0 111.462-1.997 1.24 1.24 0 01.268 1.731m-5.388 1.582a1.235 1.235 0 01-1.636.618 1.237 1.237 0 111.013-2.256c.626.28.903 1.013.623 1.638m-4.945 2.667a1.234 1.234 0 01-1.47.947 1.237 1.237 0 111.47-.947"/><path fill="#E95673" d="M29.309 10.125c-7.778 0-14.481 4.603-17.537 11.233h-.004a19.261 19.261 0 00-1.758 8.06c0 10.659 8.637 19.299 19.295 19.299 7.784 0 14.488-4.61 17.539-11.246h.005a19.246 19.246 0 001.757-8.053c0-10.659-8.64-19.293-19.297-19.293m-17.524 27.38h35.022-35.022z"/><path fill="#ED7E8D" d="M11.75 37.497c3.058 6.622 9.756 11.22 17.53 11.22 7.783 0 14.488-4.61 17.538-11.244h.007m-35.066.034H46.78 11.759z"/><path fill="#FFF" d="M16.446 28.012h25.653v1.093H16.446zm5.338-7.405h15.101v1.094H21.784zm17.049 3.585h-.022v-1h.958v-.94H18.883v.94h.974v1l-6.789 3.182s15.468.009 16.274.002c.811.007 16.292-.002 16.292-.002l-6.801-3.182zm-9.443 5.534H14.623v.94h1.097v1.263h.956v5.573h1.256v-2.93h6.735v2.923h1.252v-2.923h6.754v2.925h1.254v-2.925h6.684v2.921h1.25v-5.564h1.115v-1.263h1.019v-.94H29.39zm-11.458 2.203h6.735v1.553h-6.735v-1.553zm7.987 0h6.753v1.553h-6.753v-1.553zm14.692 1.551h-6.684v-1.553h6.684v1.553zm-8.612-19.457c.235-.021.353-.047.308-.074-.265-.172-2.17-1.857-2.84-2.523v-1.364h-.307v1.321c-.622.631-2.608 2.392-2.883 2.566-.042.027.065.053.275.071-2.635 1.852-6.341 4.349-7.672 5.721l.013.185h20.821l.013-.185c-1.328-1.367-5.091-3.864-7.728-5.718M83.098 41.44H68.883v-4.798h14.215v4.798zm-17.092 4.048h2.877v-1.531h14.215v1.531h2.997V34.304H66.006v11.184zm8.576-22.967H63.158v2.486h11.424v3.809h-8.936v2.371h20.869v-2.371h-9.054v-3.809h11.813v-2.486H77.461v-4.349h-2.879v4.349zm28.1 7.128h-2.457v-3.026h2.457v3.026zm-4.947 0h-2.787v-3.026h2.787v3.026zm4.947-5.216h-2.457v-3.447h2.457v3.447zm-4.947 0h-2.787v-3.447h2.787v3.447zm-5.397 7.587h5.397v2.97h-5.397v2.367h5.397v3.688c-1.319.16-3.487.33-6.508.51l.362 2.88c1.051-.13 2.321-.29 3.814-.48 1.494-.19 2.805-.363 3.93-.518 1.124-.154 2.162-.301 3.117-.434.954-.136 1.982-.28 3.08-.428v-2.457c-1.388.199-3.155.418-5.305.657v-3.418h5.066V34.99h-5.066v-2.97h5.066V18.585H92.338V32.02zm13.912-13.403v2.429h8.456a39.144 39.144 0 01-1.155 1.287l-2.114 2.16c-.72-.64-1.358-1.208-1.92-1.711l-1.977 1.771c.619.59 1.319 1.302 2.1 2.134a44.393 44.393 0 012.039 2.334h-5.638v2.428h4.197v10.555a.557.557 0 01-.133.376c-.053.049-.145.074-.287.074h-2.609c.54 1.25.879 2.259 1.02 3.029 1.179-.161 2.088-.32 2.729-.482.639-.159 1.088-.342 1.349-.554.48-.401.719-1.073.719-2.023V31.449h2.55l-1.981 4.288c1.21.669 1.95 1.068 2.219 1.199l1.71-3.163 1.86-3.553-1.889-1.56-.481.361h-4.167l1.649-1.439-1.169-1.23 3.239-3.343a73.419 73.419 0 002.276-2.502l-1.948-2.071-.299.181H106.25zm21.841 9.142h14.37v2.111h-6.118c-.328 2.358-.675 4.106-1.045 5.242-.484 1.496-1.17 2.801-2.05 3.923-.878 1.118-1.958 2.107-3.239 2.962-.957.638-2.254 1.292-3.885 1.954-.209-.622-.369-1.048-.479-1.271a7.628 7.628 0 00-.576-.912 30.825 30.825 0 002.212-.932c.621-.29 1.131-.572 1.529-.847 1.127-.755 2-1.55 2.614-2.372.665-.88 1.194-1.951 1.585-3.215.328-1.04.624-2.55.887-4.533h-7.076c-1.088 1.662-1.819 2.73-2.195 3.201-.488.609-1.196 1.365-2.123 2.268a6.998 6.998 0 00-.622-.876 14.397 14.397 0 00-.983-.944c1.029-1.001 1.797-1.821 2.302-2.46a26.51 26.51 0 002.229-3.358c.319-.559.688-1.263 1.098-2.106.414-.845.846-1.77 1.301-2.776l2.398.744c-.231.479-.465.958-.695 1.438-.232.48-.475.961-.731 1.44-.241.456-.475.893-.708 1.319m26.063 2.928h-6.058v-3.269h6.058v3.269zm9.056 0h-6.327v-3.269h6.327v3.269zm0-5.519h-6.327v-3.295h6.327v3.295zm-9.056 0h-6.058v-3.295h6.058v3.295zm-8.876 7.978h8.876v3.148h-9.415v2.549h9.415v3.208h-11.903v2.579h26.447v-2.579h-11.816v-3.208h9.868v-2.549h-9.868v-3.148h9.177V19.114h-20.78v14.032zm41.918.708h2.879v3h6.416v2.279h-6.416v2.548h9.504v2.547h-23.057v-2.547h4.108v-6.297h2.847v6.297h3.719v-7.827zm5.069-11.633h2.697v2.4h4.139v2.247h-3.718c.89 1.07 1.679 1.935 2.368 2.594a22.761 22.761 0 002.488 2.055c-.67.609-1.067.987-1.199 1.139-.157.189-.368.49-.629.9-1.148-1.009-2.299-2.2-3.449-3.568v4.345h-2.697v-4.286c-.66.74-1.227 1.324-1.695 1.754-.397.37-1.053.924-1.963 1.665a20.993 20.993 0 00-1.65-1.918 63.93 63.93 0 003.223-2.982 12.44 12.44 0 001.365-1.698h-3.51v-2.247h4.23v-2.4zm-10.405 0h2.578v2.309h2.668v2.367h-2.668v.632c.76.609 1.739 1.29 2.942 2.04-.753 1.138-1.194 1.826-1.323 2.068l-1.619-1.141v3.836h-2.578v-4.016c-.271.342-.875 1.114-1.813 2.324-.103.139-.407.494-.916 1.064a12.52 12.52 0 00-1.5-2.157c1.038-1.063 1.81-1.896 2.31-2.505.44-.559.899-1.274 1.377-2.146h-2.996v-2.367h3.539v-2.308zm-7.496-3.329h25.004v2.579h-22.217l-.029 6.658-.105 5.382a31.452 31.452 0 01-.717 5.516 19.393 19.393 0 01-.671 2.385c-.242.681-.736 1.809-1.473 3.389-.422-.542-.764-.935-1.021-1.186a23.276 23.276 0 00-1.321-1.035c.641-1.308 1.071-2.308 1.289-2.998.491-1.45.816-2.869.975-4.256.17-1.471.256-3.564.256-6.283l.03-10.151zm40.317 11.512h-6.805v-5.308h6.805v5.308zm9.744 0h-6.775v-5.308h6.775v5.308zm-9.744-7.794h-9.504v11.154h2.699v-.96h6.805a23.12 23.12 0 01-.299 2.64c-.15.868-.42 1.718-.808 2.547-.782-.459-1.372-.864-1.771-1.213a22.54 22.54 0 01-2.699-2.863l-2.188 1.56c.868 1.108 1.614 1.949 2.234 2.531.32.289.658.583 1.025.879.365.293.887.675 1.566 1.146-1.059.771-2.333 1.38-3.822 1.828-1.49.451-3.342.789-5.563 1.022.52.876.969 1.817 1.348 2.816a32.68 32.68 0 003.84-.778 24.76 24.76 0 003.477-1.23c1.021-.459 2.117-1.18 3.302-2.158 1.976.938 3.75 1.634 5.321 2.084 1.789.51 3.416.895 4.886 1.156 1.019.169 2.556.378 4.603.627.199-.689.57-1.649 1.11-2.88-3.181-.149-5.856-.488-8.036-1.019-2.291-.56-4.357-1.24-6.207-2.038.53-.871.916-1.859 1.155-2.971.188-.887.334-2.117.433-3.686h6.836v.751h2.91V22.61h-9.686v-4.62h-2.969v4.62zm31.032 6.373l-5.161 12.413c2.77-.143 6.456-.422 11.064-.842l-4.105-5.456 2.217-1.56c1.709 2.049 2.86 3.468 3.449 4.257.65.87 1.311 1.785 1.986 2.745a84.543 84.543 0 012.091 3.132l-2.58 1.561a19.36 19.36 0 01-.704-1.187c-.148-.27-.395-.662-.732-1.185l-9.178.946-11.183 1.005-.479-3.09a325.62 325.62 0 005.215-.238c.701-1.78 1.31-3.355 1.824-4.725a435.768 435.768 0 001.573-4.271 296.525 296.525 0 001.58-4.468l3.123.963zm13.341 1.917c-1.102 1.05-1.859 1.836-2.279 2.368-1.49-1.219-2.599-2.218-3.33-2.999-1.269-1.4-2.481-3.003-3.643-4.812a51.09 51.09 0 01-1.632-2.828 43.19 43.19 0 01-1.47-3.093l2.761-1.081c.498 1.2.923 2.166 1.278 2.901.355.735.703 1.387 1.041 1.958 1.23 2.008 2.58 3.716 4.049 5.126.49.449.984.862 1.484 1.237s1.079.784 1.741 1.223m-26.358 2.189a11.122 11.122 0 00-1.799-2.34 27.771 27.771 0 001.979-1.815 36.002 36.002 0 002.054-2.247 43.47 43.47 0 001.746-2.174 34.207 34.207 0 001.447-2.041 41.146 41.146 0 002.277-4.046l2.851 1.32a52 52 0 01-2.146 3.59 52.326 52.326 0 01-2.203 3.125c-.451.6-.969 1.249-1.555 1.949a51.616 51.616 0 01-1.879 2.131c-.337.359-1.262 1.207-2.772 2.548m43.348 1.075h4.018l-2.036 1.679a9.674 9.674 0 01-1.982-1.679m1.649-1.68h-7.646v-1.59h7.646v1.59zm-10.227 1.68h3.719c-.967.771-1.889 1.385-2.756 1.845a35.424 35.424 0 01-3.6 1.604c.539.577 1.139 1.27 1.801 2.068 1.117-.458 2.027-.898 2.728-1.317.868-.521 1.907-1.231 3.118-2.132v4.291h2.789v-3.99c.988 1.011 1.898 1.775 2.729 2.294.877.551 2.02 1.114 3.418 1.696a9.729 9.729 0 011.617-2.281c-.74-.199-1.314-.385-1.725-.555a11.13 11.13 0 01-1.303-.675l2.938-1.889-1.919-1.769-.84.689v-4.855h-12.715v4.976zm5.01-11.245h-5.01v1.949h5.01v1.2h-7.047v1.98h17.359v-1.98h-7.494v-1.2h5.574v-1.949h-5.574v-1.408h-2.818v1.408zm11.185 18.473H264.44v-20.57h19.221v20.57zm-22.07 3.777h2.851v-1.44h19.22v1.44h2.877V18.513h-24.947v26.656zM63.057 51.692h1.065l1.923 3.214 1.915-3.214h1.066L66.5 55.688v2.693h-.91v-2.693zm9.713 6.083c-.847 0-1.457-.258-1.835-.764-.376-.507-.566-1.132-.566-1.87 0-.926.221-1.626.661-2.1.438-.477 1.007-.714 1.704-.714.717 0 1.283.239 1.696.72.413.481.62 1.11.62 1.896 0 .745-.179 1.402-.539 1.974-.357.572-.938.858-1.741.858m-.087-6.254c-1.132 0-1.985.41-2.563 1.238-.449.643-.673 1.416-.673 2.322 0 .998.262 1.828.789 2.483.587.678 1.397 1.018 2.428 1.018 1.105 0 1.952-.388 2.549-1.164.508-.66.761-1.491.761-2.489 0-.922-.224-1.678-.666-2.271-.564-.759-1.444-1.137-2.625-1.137m4.948 4.708c.02.381.105.688.256.925.286.443.795.663 1.52.663.324 0 .619-.046.887-.144.517-.187.775-.524.775-1.01 0-.362-.109-.624-.33-.775-.223-.149-.57-.28-1.044-.39l-.873-.206c-.57-.132-.976-.278-1.211-.44-.41-.283-.614-.703-.614-1.261 0-.604.201-1.103.604-1.491.402-.386.974-.579 1.715-.579.679 0 1.258.169 1.733.508.476.341.714.884.714 1.63h-.853c-.043-.357-.135-.633-.276-.822-.263-.348-.709-.522-1.339-.522-.509 0-.875.113-1.099.339-.22.222-.332.484-.332.78 0 .328.131.568.394.721.175.1.565.219 1.175.366l.907.213c.437.102.773.243 1.01.422.411.313.616.766.616 1.362 0 .74-.262 1.271-.787 1.589-.522.317-1.132.477-1.826.477-.809 0-1.441-.21-1.903-.637-.454-.422-.679-.996-.669-1.717h.85zm5.638-4.537h.91v2.759h3.468v-2.759h.911v6.689h-.911v-3.134h-3.468v3.134h-.91zm6.918 0h.911v6.688h-.911zm2.4 0h1.056l3.35 5.399v-5.399h.854v6.689h-1.008l-3.4-5.396v5.396h-.852zm9.693 6.083c-.845 0-1.455-.258-1.833-.764-.377-.507-.566-1.132-.566-1.87 0-.926.22-1.626.66-2.1.44-.477 1.008-.714 1.703-.714.72 0 1.284.239 1.698.72.412.481.619 1.11.619 1.896 0 .745-.18 1.402-.538 1.974-.36.572-.937.858-1.743.858m-.085-6.254c-1.132 0-1.986.41-2.563 1.238-.451.643-.675 1.416-.675 2.322 0 .998.263 1.828.789 2.483.591.678 1.4 1.018 2.431 1.018 1.101 0 1.951-.388 2.547-1.164.51-.66.762-1.491.762-2.489 0-.922-.223-1.678-.665-2.271-.569-.759-1.443-1.137-2.626-1.137m8.805.363c.654.348 1.055.96 1.202 1.832h-.898c-.106-.482-.327-.838-.664-1.057-.335-.221-.759-.331-1.27-.331-.606 0-1.117.231-1.53.693-.418.466-.623 1.153-.623 2.069 0 .796.17 1.44.512 1.938.343.497.9.746 1.671.746.591 0 1.08-.178 1.469-.527.384-.348.587-.915.596-1.698h-2.095v-.754h2.948v3.586h-.595l-.219-.866c-.3.336-.568.57-.8.701-.39.225-.885.339-1.489.339a2.87 2.87 0 01-2.007-.771c-.611-.645-.915-1.526-.915-2.647 0-1.12.298-2.008.895-2.672.568-.632 1.303-.945 2.205-.945.62.001 1.155.122 1.607.364m4.147 3.765l1.073-2.961 1.031 2.961h-2.104zm-1.925 2.733h.935l.724-1.996h2.628l.696 1.996h.997l-2.428-6.689h-1.032l-2.52 6.689zm7.821-3.627v-2.269h2.134c.297 0 .537.047.713.138.335.17.502.492.502.966 0 .438-.117.745-.358.914-.237.17-.561.251-.972.251h-2.019zm-.911 3.627h.911v-2.861h1.981c.356 0 .616.039.783.124.294.146.448.44.471.875l.055 1.113a4.1 4.1 0 00.049.524c.02.092.042.166.075.225h1.119v-.16c-.141-.059-.239-.194-.294-.405a2.484 2.484 0 01-.065-.562l-.03-.895c-.014-.388-.09-.669-.223-.841-.134-.177-.332-.314-.594-.426.298-.151.531-.357.697-.612.168-.254.251-.583.251-.985 0-.767-.309-1.292-.922-1.578-.326-.15-.737-.226-1.235-.226h-3.029v6.69zm6.816-6.69h.909v6.688h-.909zm7.58 0h.91v2.759h3.465v-2.759h.909v6.689h-.909v-3.134h-3.465v3.134h-.91zm6.917 0h.909v6.688h-.909zm2.978 4.537c.02.381.104.688.258.925.285.443.793.663 1.518.663.325 0 .62-.046.888-.144.515-.187.775-.524.775-1.01 0-.362-.113-.624-.333-.775-.22-.149-.567-.28-1.042-.39l-.874-.206c-.57-.132-.973-.278-1.211-.44-.411-.283-.615-.703-.615-1.261 0-.604.202-1.103.605-1.491.402-.386.974-.579 1.715-.579.679 0 1.259.169 1.735.508.474.341.712.884.712 1.63h-.854c-.043-.357-.135-.633-.278-.822-.261-.348-.707-.522-1.336-.522-.511 0-.876.113-1.098.339a1.065 1.065 0 00-.334.78c0 .328.132.568.397.721.17.1.562.219 1.172.366l.906.213c.438.102.772.243 1.011.422.41.313.617.766.617 1.362 0 .74-.264 1.271-.786 1.589-.525.317-1.134.477-1.825.477-.81 0-1.445-.21-1.904-.637-.455-.422-.681-.996-.671-1.717h.852zm10.476-4.537v.795h-2.252v5.894h-.91v-5.894h-2.254v-.795zm3.652 6.083c-.846 0-1.459-.258-1.834-.764-.378-.507-.568-1.132-.568-1.87 0-.926.22-1.626.662-2.1.438-.477 1.007-.714 1.703-.714.717 0 1.283.239 1.696.72.415.481.62 1.11.62 1.896 0 .745-.182 1.402-.536 1.974-.361.572-.94.858-1.743.858m-.089-6.254c-1.129 0-1.985.41-2.563 1.238-.448.643-.674 1.416-.674 2.322 0 .998.263 1.828.789 2.483.588.678 1.399 1.018 2.43 1.018 1.104 0 1.952-.388 2.548-1.164.51-.66.761-1.491.761-2.489 0-.922-.221-1.678-.662-2.271-.571-.759-1.446-1.137-2.629-1.137m5.385 3.234v-2.269h2.134c.299 0 .536.047.719.138.33.17.498.492.498.966 0 .438-.121.745-.359.914-.237.17-.559.251-.974.251h-2.018zm-.912 3.627h.912v-2.861h1.982c.355 0 .618.039.785.124.291.146.448.44.467.875l.057 1.113c.015.262.03.436.05.524a.792.792 0 00.073.225h1.119v-.16c-.14-.059-.238-.194-.295-.405a2.687 2.687 0 01-.064-.562l-.028-.895c-.016-.388-.09-.669-.223-.841-.138-.177-.334-.314-.597-.426.298-.151.531-.357.698-.612.167-.254.25-.583.25-.985 0-.767-.308-1.292-.921-1.578-.323-.15-.738-.226-1.237-.226h-3.028v6.69zm6.818-6.69h.907v6.688h-.907zm7.121.497c.463.448.719.954.771 1.526h-.898c-.096-.433-.293-.771-.588-1.024-.291-.253-.703-.378-1.236-.378-.646 0-1.168.23-1.568.691-.396.462-.594 1.168-.594 2.118 0 .779.178 1.411.537 1.896.359.483.893.726 1.607.726.653 0 1.155-.254 1.49-.764.186-.266.322-.621.411-1.056h.894c-.074.702-.334 1.293-.771 1.77-.527.574-1.236.86-2.127.86-.77 0-1.411-.237-1.938-.707-.688-.619-1.029-1.581-1.029-2.879 0-.985.258-1.791.775-2.425.561-.684 1.328-1.024 2.311-1.024.84.002 1.49.226 1.953.67m3.344 3.46l1.072-2.961 1.029 2.961h-2.101zm-1.926 2.733h.937l.72-1.996h2.629l.695 1.996h.997l-2.429-6.689h-1.032l-2.517 6.689zm6.807-6.69h.91v5.894h3.338v.795h-4.248zm13.88 1.928c0 .434-.123.735-.377.907-.253.172-.58.255-.981.255h-1.791v-2.296h1.791c.348 0 .617.049.817.14.362.178.541.508.541.994m-4.06 4.762h.91V55.55h2.088c.668 0 1.168-.194 1.492-.58.328-.386.496-.841.496-1.361 0-.606-.186-1.075-.55-1.411-.37-.337-.851-.505-1.442-.505h-2.994v6.689zm6.785-2.733l1.074-2.961 1.031 2.961h-2.105zm-1.924 2.733h.935l.722-1.996h2.631l.693 1.996h1l-2.427-6.689h-1.037l-2.517 6.689zm7.821-3.627v-2.269h2.137c.295 0 .535.047.713.138.334.17.5.492.5.966 0 .438-.118.745-.359.914-.234.17-.561.251-.971.251h-2.02zm-.911 3.627h.91v-2.861h1.985c.354 0 .614.039.78.124.289.146.447.44.468.875l.06 1.113c.012.262.029.436.047.524a.859.859 0 00.074.225h1.121v-.16c-.141-.059-.24-.194-.297-.405a2.533 2.533 0 01-.061-.562l-.03-.895c-.021-.388-.095-.669-.229-.841-.129-.177-.328-.314-.592-.426.297-.151.534-.357.7-.612.164-.254.248-.583.248-.985 0-.767-.306-1.292-.92-1.578-.325-.15-.737-.226-1.235-.226h-3.029v6.69zm6.614-6.69h.895v3.27l3.298-3.27h1.272l-2.824 2.692 2.894 3.997h-1.19l-2.372-3.359-1.078 1.027v2.332h-.895zM71.752 6.169l.155-.203c.754.511 1.356 1.085 1.812 1.716.452.632.679 1.197.679 1.687 0 .258-.043.46-.132.604a.418.418 0 01-.373.215c-.221 0-.41-.349-.567-1.046a14.686 14.686 0 00-.071-.363c-.093-.396-.27-.824-.536-1.292a7.286 7.286 0 00-.967-1.318m-3.163-.534l1.05.417a.282.282 0 01.117.092c.03.045.048.09.048.13a.205.205 0 01-.053.144.348.348 0 01-.162.095l-.253.094c-.378 1.09-.781 2.02-1.214 2.79-.428.775-.727 1.161-.895 1.161a.078.078 0 01-.062-.027.118.118 0 01-.024-.079c0-.023.044-.131.135-.325a16.286 16.286 0 001.313-4.492m.696-5.039l1.099.549c.054.024.098.06.128.109a.232.232 0 01.049.14c0 .07-.026.132-.077.189a.354.354 0 01-.199.1l-.371.065c-.241.481-.433.854-.578 1.123a12.46 12.46 0 01-.364.651h3.69l.744-.862.883.775a.47.47 0 01.092.114.29.29 0 01.03.127.15.15 0 01-.04.103.138.138 0 01-.109.044h-2.971v7.028a.908.908 0 01-.314.702c-.208.189-.419.284-.633.284-.099 0-.169-.092-.214-.274-.045-.184-.124-.296-.239-.335l-1.147-.364v-.226c.183.008.411.02.68.035.311.017.487.026.528.026.197 0 .333-.03.408-.097.072-.062.111-.202.111-.42V3.823h-1.705c-.4.571-.767 1.049-1.096 1.432-.329.385-.527.576-.59.576-.038 0-.069-.007-.089-.025-.02-.014-.03-.039-.03-.068 0-.02.06-.119.18-.3.904-1.381 1.621-2.994 2.144-4.842m-3.312 1.055l.27-.495.792.615c.06.049.102.089.122.119a.193.193 0 01-.004.212.175.175 0 01-.076.075l-.26.099-.127 2.478c-.007.179-.056.299-.149.365-.094.062-.259.094-.5.094-.062 0-.101-.011-.128-.039-.026-.023-.041-.062-.041-.121v-.049l.038-.525h-1.347l-.305 1.873h1.716l.446-.546.742.657a.51.51 0 01.104.13c.022.039.032.08.032.12a.144.144 0 01-.036.099.28.28 0 01-.1.091l-.275.124c-.053 1.658-.229 2.836-.525 3.529-.301.694-.768 1.038-1.412 1.038-.114 0-.177-.104-.187-.317-.011-.214-.063-.34-.164-.389l-.92-.438.037-.162c.321.057.611.102.867.134.26.035.438.049.538.049.547 0 .873-1.075.976-3.231.008-.257.016-.456.025-.602h-1.926c-.006.043-.019.096-.029.162-.071.439-.22.659-.451.659-.168 0-.285-.015-.352-.041-.067-.031-.101-.08-.101-.148 0-.027.022-.14.062-.341a37.86 37.86 0 00.513-3.215l.807.463h1.265l.131-2.226h-1.264c-.053 0-.25.003-.592.012-.343.011-.662.018-.959.023l-.13-.385c.4.01.754.021 1.063.031.31.011.515.019.618.019h1.196zM80.953.555L82.1.678c.11.012.188.038.233.079.044.037.068.097.068.173a.218.218 0 01-.05.136.426.426 0 01-.154.129l-.301.19v2.287h2.56l.806-.875.998.696c.09.067.149.12.172.158a.24.24 0 01.037.13c0 .059-.019.102-.058.132-.041.033-.1.047-.182.047h-4.333v3.035h1.527l.744-.793.956.67a.491.491 0 01.13.119c.033.04.048.081.048.121a.157.157 0 01-.069.135.307.307 0 01-.186.051h-3.15v3.309H85l.892-.957 1.011.703c.071.05.126.104.16.162a.36.36 0 01.053.19c0 .048-.022.094-.068.138-.046.042-.09.064-.135.064h-8.748c-.096 0-.394.007-.892.022-.497.014-.951.022-1.358.028l-.227-.424c.482.004.997.018 1.546.039.549.022.859.035.931.035h2.789V7.298h-1.301c-.095 0-.361.003-.798.012-.439.013-.829.018-1.178.023l-.205-.4c.422.004.872.017 1.352.038.477.017.751.024.82.024h1.31V3.959h-2.683c-.439.769-.891 1.42-1.357 1.964-.464.539-.777.808-.938.808-.01 0-.017-.008-.025-.019-.009-.012-.014-.02-.014-.03 0-.039.075-.158.219-.363.975-1.478 1.653-3.198 2.035-5.161l1.055.401a.873.873 0 01.224.133c.058.055.088.104.088.149 0 .07-.028.139-.086.199a.347.347 0 01-.204.118l-.202.034a12.97 12.97 0 01-.311.761c-.106.246-.219.485-.339.718h2.538V.555zM92.546.84l1.273.086c.09.011.167.04.227.089.06.05.091.104.091.167a.37.37 0 01-.137.262l-.341.242.085 1.408c.104 1.642.657 3.086 1.659 4.334 1.006 1.247 2.378 2.193 4.124 2.843a1.789 1.789 0 00-.693.329 2.529 2.529 0 00-.568.648c-1.448-.865-2.548-1.875-3.304-3.031-.759-1.155-1.234-2.555-1.428-4.197-.084 1.277-.273 2.341-.572 3.189-.298.847-.733 1.568-1.308 2.162a6.309 6.309 0 01-1.01.848c-.381.26-.813.502-1.297.729a9.996 9.996 0 01-.824.349c-.255.098-.411.143-.464.143a.11.11 0 01-.09-.041.134.134 0 01-.034-.094c0-.05.234-.198.702-.453a9.04 9.04 0 001.312-.859 6.572 6.572 0 002.107-2.906c.429-1.159.645-2.692.645-4.596 0-.371-.012-.68-.037-.929a5.133 5.133 0 00-.118-.722m12.076 2.144a.38.38 0 01.109.29c0 .055-.049.245-.142.576-.096.33-.227.769-.4 1.315-.155.492-.334.971-.537 1.436-.201.466-.419.912-.657 1.338-.245.436-.441.729-.59.879-.149.153-.299.23-.457.23-.244 0-.456-.176-.631-.525-.178-.349-.264-.787-.264-1.314 0-1.02.283-1.909.852-2.675.568-.764 1.364-1.333 2.389-1.702.146.029.258.078.328.152m.884-.369c.112-.018.232-.022.351-.022 1.037 0 1.917.334 2.643 1.001.722.67 1.086 1.477 1.086 2.426 0 .878-.292 1.644-.876 2.299-.583.654-1.471 1.214-2.669 1.675a7.43 7.43 0 01-.601.199c-.203.066-.304.129-.304.19 0 .049.014.087.041.113a.137.137 0 00.108.043c.115 0 .388-.061.821-.178.434-.118.87-.265 1.315-.446 1.048-.415 1.836-.928 2.362-1.543a3.243 3.243 0 00.787-2.163c0-1.146-.455-2.113-1.361-2.899-.908-.788-2.035-1.183-3.386-1.183-.764 0-1.521.175-2.269.529a6.566 6.566 0 00-2.016 1.482c-.452.496-.789.994-1.013 1.499a3.816 3.816 0 00-.336 1.557c0 .41.081.803.242 1.176.159.373.4.723.721 1.052.187.202.36.352.519.456.159.101.292.154.398.154.298 0 .686-.368 1.166-1.107.479-.735.996-1.761 1.551-3.078.161-.386.324-.803.493-1.253.167-.448.267-.707.301-.778.038-.101.09-.195.149-.279a.629.629 0 00.084-.151c0-.083-.057-.187-.171-.314a2.604 2.604 0 00-.481-.399c.116-.026.23-.045.345-.058m15.164 5.351h-2.762v-1.9h2.762v1.9zm-3.666-1.901v1.9h-2.514v-1.9h2.514zm-3.412.721l.011.912c0 .833-.096 1.509-.284 2.029-.189.521-.508 1.032-.953 1.531-.133.158-.29.307-.46.455-.173.142-.259.238-.259.278 0 .026.01.045.035.065a.115.115 0 00.076.026c.043 0 .17-.058.377-.177.208-.121.412-.259.619-.419.573-.454.991-.929 1.252-1.429.263-.497.416-1.098.464-1.803h6.201v.683c0 .068.028.126.083.168.05.044.121.065.208.065a.638.638 0 00.416-.129.42.42 0 00.155-.343v-2.23l.259-.112a.274.274 0 00.083-.067.15.15 0 00.027-.087.156.156 0 00-.023-.067.386.386 0 00-.064-.082l-.823-.821-.38.52h-5.978l-1.058-.589.016 1.623m3.412-4.481h-2.605c-.069 0-.377-.008-.928-.028a69.258 69.258 0 00-1.551-.034l.155.432c.327-.009.741-.021 1.241-.038.66-.02 1.031-.031 1.114-.031h2.574v1.56h-1.973c-.072 0-.349-.008-.833-.021a47.69 47.69 0 00-1.341-.028l.135.413a45.95 45.95 0 012.039-.05h6.821c.061 0 .11-.016.149-.047a.152.152 0 00.054-.121.223.223 0 00-.052-.134.713.713 0 00-.151-.136l-.934-.67-.628.794h-2.382v-1.56h5.016a.243.243 0 00.145-.049.147.147 0 00.055-.122.274.274 0 00-.044-.146.412.412 0 00-.12-.13l-.959-.686-.665.832h-3.428v-.981l.325-.205a.342.342 0 00.127-.123.268.268 0 00.041-.153.218.218 0 00-.079-.164.33.33 0 00-.197-.076L117.004.54v1.765zm16.41-1.313l.052-.124h.177c.428 0 .85.137 1.267.406.416.269.627.551.627.849a.395.395 0 01-.109.286.351.351 0 01-.269.116c-.062 0-.252-.187-.572-.559a4.77 4.77 0 00-1.173-.974m-1.434.661l.047-.141c.53.071.98.254 1.356.549.376.296.565.597.565.899a.428.428 0 01-.114.313.433.433 0 01-.312.113c-.115 0-.3-.209-.552-.626a4.098 4.098 0 00-.99-1.107m-.263 6.629l-.025-.191c.362-.106.809-.224 1.348-.351.738-.183 1.109-.393 1.109-.626 0-.271-.157-.637-.47-1.096a6.087 6.087 0 00-1.203-1.284 24.451 24.451 0 00-.431-.332c-.211-.145-.315-.246-.315-.3 0-.02.01-.038.033-.052a.158.158 0 01.091-.022c.119 0 .355.097.714.285.359.193.716.43 1.075.71.525.411.944.895 1.256 1.457.316.562.473 1.097.473 1.611 0 .188-.03.328-.084.422a.27.27 0 01-.25.137c-.122 0-.276-.087-.462-.256a.92.92 0 00-.657-.26c-.387 0-.817.024-1.295.074-.476.047-.765.074-.858.074h-.049zm-3.734 1.841l-1.132-.903.104-.215 1.245.59c.107.049.213.091.323.124.107.035.173.054.194.054.258 0 .552-.435.877-1.304a7.814 7.814 0 00.485-2.732c0-.403-.066-.709-.198-.917a.648.648 0 00-.586-.313c-.128 0-.296.017-.51.05a7.507 7.507 0 00-.672.141l-1.753 3.816c-.064.136-.147.325-.254.565-.589 1.306-1.001 1.958-1.23 1.958a.375.375 0 01-.324-.177.805.805 0 01-.119-.458c0-.111.157-.372.47-.788a7.26 7.26 0 00.754-1.213l1.661-3.477c-.467.109-.916.239-1.345.395-.1.033-.156.05-.168.05-.186 0-.432-.146-.733-.439-.297-.292-.447-.51-.447-.654 0-.057.021-.119.067-.188a.925.925 0 01.196-.215c.287.308.504.503.651.583.144.08.313.118.506.118.21 0 .541-.052.997-.161.246-.058.433-.098.568-.123l.616-1.523c.033-.078.064-.151.084-.221a.62.62 0 00.03-.15c0-.146-.089-.295-.271-.449a2.159 2.159 0 00-.712-.386c.01-.069.076-.146.196-.227.119-.08.222-.123.306-.123.083 0 .196.035.343.104.147.07.308.169.492.301.248.172.437.323.565.453.128.131.19.239.19.327 0 .072-.08.165-.239.279-.161.11-.276.249-.352.407l-.504 1.092c.08-.013.189-.036.338-.075.333-.065.57-.099.708-.099.451 0 .792.171 1.02.517.229.34.34.852.34 1.528 0 .598-.087 1.256-.263 1.971-.177.713-.404 1.323-.685 1.833a3.635 3.635 0 01-.658.91c-.233.227-.437.339-.611.339-.17 0-.267-.13-.289-.39-.02-.263-.108-.457-.271-.585m16.071-8.708h2.814v1.014h-2.814V1.415zm0 1.313h2.814v.959h-2.814v-.959zm-.767 1.888c-.01.069.001.119.032.146.032.031.089.044.167.044a.667.667 0 00.387-.105.375.375 0 00.181-.276v-.438h2.815v6.489c-.003.008-.006.015-.003.024a.096.096 0 01.003.02c0 .099-.022.157-.074.178-.048.021-.156.032-.325.032l-1.164.01v.154l.923.266c.188.057.298.174.329.35.03.177.118.264.26.264.203 0 .398-.101.596-.304a.987.987 0 00.291-.697V1.805l.186-.073a.297.297 0 00.116-.07.178.178 0 00.039-.11.213.213 0 00-.05-.122 1.344 1.344 0 00-.155-.166l-.732-.681-.324.546h-2.569l-.927-.493v3.98zm-1.915.944h2.395v.983h-2.395V5.56zm0 1.298h2.395v.93h-2.395v-.93zm2.395 2.191c-.4.05-.802.091-1.198.124-.398.033-.795.055-1.196.069V8.088h2.395v.961zm-3.156-3.778c-.039 0-.255-.004-.653-.017-.395-.013-.777-.024-1.145-.037l.174.392c.225-.004.521-.011.89-.024.369-.016.625-.023.769-.026V9.29c-.212.026-.437.043-.669.057-.232.011-.561.019-.99.019l.532.899c.061.089.111.157.155.199.044.044.084.067.12.067a.29.29 0 00.139-.047.47.47 0 00.114-.107l.18-.266a58.965 58.965 0 001.756-.258 94.62 94.62 0 001.783-.309v1.702c0 .081.015.138.048.175.032.033.086.054.159.054.13 0 .253-.036.374-.106.121-.073.184-.141.184-.211V9.403c.471-.082.845-.152 1.122-.205.279-.051.538-.106.78-.159v-.277c-.375.049-.723.09-1.033.127-.315.034-.604.063-.869.09V5.56h1.799a.113.113 0 00.088-.04.123.123 0 00.039-.088.219.219 0 00-.021-.106.196.196 0 00-.07-.076l-.878-.675-.64.697h-4.237zm-2.303-3.798h2.749v.983h-2.749v-.983zm0 1.282h2.749v.998h-2.749v-.998zm-.831 8.971c0 .057.016.104.05.133.034.033.085.046.145.046a.768.768 0 00.432-.13c.137-.085.205-.181.205-.289V4.057h2.749v.613c0 .082.022.144.065.183.042.039.104.059.186.059.133 0 .251-.04.363-.115.11-.077.166-.167.166-.275V1.786l.164-.063a.27.27 0 00.103-.07.15.15 0 00.034-.096.242.242 0 00-.027-.1.574.574 0 00-.081-.108l-.71-.713-.363.533h-2.553l-.928-.462v11.019zm15.857-8.181c-.737-.003-1.38-.163-1.927-.473-.548-.31-.822-.593-.822-.845 0-.046.012-.081.037-.112.023-.029.06-.041.109-.041h.014c.007 0 .037.016.087.053.615.473 1.49.713 2.624.713.797 0 1.589-.073 2.371-.209.144-.031.228-.045.252-.045.147 0 .295.067.439.198.148.13.22.264.22.398 0 .157-.039.268-.115.334-.08.069-.213.103-.402.103h-.142c-.987 0-1.997.246-3.024.742-.446.22-.873.459-1.271.717-.399.256-.606.385-.619.385a.137.137 0 01-.086-.023c-.022-.016-.031-.04-.031-.073 0-.12.204-.343.61-.667s.963-.711 1.676-1.155m4.074 6.254c.146 0 .295.064.438.191.146.124.218.251.218.373 0 .228-.231.39-.692.486-.458.094-1.279.138-2.456.138-1.159 0-2.072-.098-2.732-.292-.657-.194-1.202-.514-1.629-.961a3.373 3.373 0 01-.601-.882 2.13 2.13 0 01-.203-.897c0-.123.011-.215.031-.272.025-.057.061-.085.11-.085.055 0 .103.071.135.215.032.127.069.232.105.315.265.661.735 1.156 1.405 1.481.675.329 1.557.49 2.646.49 1.164 0 2.184-.092 3.063-.274a1.36 1.36 0 01.162-.026m6.142-7.529a2.804 2.804 0 01-.958-.786 1.87 1.87 0 01-.389-1.015l.152-.039c.419.685 1.19 1.127 2.314 1.323l.056.013c.26.049.465.145.613.288.155.145.231.304.231.481a.335.335 0 01-.069.227c-.044.047-.115.073-.206.073a.149.149 0 00-.052-.01c-.093 0-.243-.028-.444-.077a2.25 2.25 0 00-.456-.073c-.394 0-1.009.21-1.851.626-.233.112-.359.167-.391.167a.129.129 0 01-.099-.044.135.135 0 01-.041-.097c0-.07.107-.176.32-.321.215-.141.637-.389 1.27-.736m4.605 8.125c.309.027.563.097.765.22.205.122.305.253.305.397 0 .175-.107.294-.326.353-.217.061-.793.09-1.727.09-.92 0-1.567-.056-1.939-.164-.376-.108-.601-.299-.686-.567-.073-.234-.121-.58-.137-1.037-.02-.454-.041-.768-.067-.936-.029-.22-.107-.378-.224-.475-.117-.098-.293-.146-.531-.146-.296 0-.623.143-.983.423-.358.284-.804.751-1.337 1.402-.062.08-.151.188-.267.331-.492.619-.862.93-1.108.93a.355.355 0 01-.273-.112.43.43 0 01-.102-.302c0-.221.169-.473.505-.758.154-.127.276-.23.362-.31.85-.834 1.84-1.827 2.975-2.975 1.134-1.151 1.806-1.835 2.019-2.046a16.57 16.57 0 00-3.731 1.135c-.194.081-.308.123-.339.123-.168 0-.387-.135-.654-.405-.269-.271-.404-.483-.404-.639 0-.127.042-.261.125-.407.081-.145.157-.217.227-.217.024 0 .079.127.164.382.083.255.265.384.543.384.052 0 .202-.029.457-.09.253-.059.463-.105.627-.139l3.191-.671.442-.401c.271.1.507.227.711.38.203.153.306.277.306.366 0 .111-.05.197-.147.257-.1.06-.299.111-.593.156-.466.358-.896.711-1.305 1.061-.407.346-.774.689-1.11 1.022l-.927.95.025.012c.19-.09.363-.154.515-.193.154-.041.301-.059.444-.059.772 0 1.19.625 1.256 1.873v.112c.005.052.008.125.011.212.02.349.061.553.128.611a.813.813 0 00.341.103c.159.02.506.029 1.036.029.391 0 .689-.02.907-.06.214-.041.391-.109.53-.205m6.903.243c-.154.033-.276.05-.363.05-.52 0-.973-.118-1.352-.355-.381-.237-.572-.513-.572-.828 0-.169.074-.306.225-.41.145-.105.336-.157.568-.157.431 0 .787.16 1.078.482.291.325.443.732.453 1.218h-.037zm.082-1.647a2.007 2.007 0 00-1.404-.532c-.463 0-.829.104-1.102.317a1.02 1.02 0 00-.41.851c0 .435.265.818.791 1.152.525.33 1.154.497 1.875.497a4.46 4.46 0 001.375-.228 4.82 4.82 0 001.293-.641c.478-.335.836-.721 1.074-1.148.242-.43.36-.902.36-1.415 0-.859-.31-1.56-.929-2.107-.619-.547-1.422-.82-2.405-.82-.332 0-.683.042-1.045.122-.362.082-.815.223-1.358.427l2.725-2.711c.205-.201.384-.359.537-.475.15-.115.287-.192.408-.234a4.12 4.12 0 01.178-.047c.209-.049.313-.134.313-.253 0-.107-.057-.224-.177-.349-.121-.124-.36-.31-.726-.557a3.07 3.07 0 01-.486.341 1.635 1.635 0 01-.512.153l-2.66.398a.22.22 0 01-.059.014c-.107.007-.183.012-.23.012a.965.965 0 01-.518-.142c-.148-.094-.326-.263-.527-.51a2.353 2.353 0 00-.227.251.306.306 0 00-.064.161c0 .041.044.119.137.234.09.115.236.275.443.486.142.149.273.269.396.353.121.084.215.126.282.126.019 0 .118-.057.297-.169.179-.114.364-.192.552-.237l2.541-.579-3.777 4.165c-.24.262-.516.536-.825.822-.31.286-.598.532-.867.744-.021.011-.046.031-.08.058a.65.65 0 00-.268.544c0 .13.037.232.108.308.066.073.167.11.291.11.137 0 .392-.2.758-.603.271-.304.506-.553.703-.746.621-.609 1.23-1.056 1.826-1.344a4.18 4.18 0 011.84-.436c.74 0 1.334.224 1.787.668.45.446.678 1.037.678 1.778 0 .619-.188 1.16-.562 1.622-.373.463-.905.804-1.589 1.028-.116-.617-.373-1.104-.761-1.459"/></svg>